<svg xmlns="http://www.w3.org/2000/svg" version="1.1" xmlns:xlink="http://www.w3.org/1999/xlink" xmlns:svgjs="http://svgjs.com/svgjs" width="1920" height="480" preserveAspectRatio="none" viewBox="0 0 1920 480"><g mask="url(&quot;#SvgjsMask2988&quot;)" fill="none"><rect width="1920" height="480" x="0" y="0" fill="url(#SvgjsLinearGradient2989)"></rect><path d="M12 480L492 0L787.5 0L307.5 480z" fill="url(#SvgjsLinearGradient2990)"></path><path d="M361.8 480L841.8 0L1056.3 0L576.3 480z" fill="url(#SvgjsLinearGradient2990)"></path><path d="M670.6 480L1150.6 0L1396.6 0L916.6 480z" fill="url(#SvgjsLinearGradient2990)"></path><path d="M983.4000000000001 480L1463.4 0L1835.4 0L1355.4 480z" fill="url(#SvgjsLinearGradient2990)"></path><path d="M1903 480L1423 0L1126 0L1606 480z" fill="url(#SvgjsLinearGradient2991)"></path><path d="M1587.2 480L1107.2 0L889.7 0L1369.7 480z" fill="url(#SvgjsLinearGradient2991)"></path><path d="M1250.4 480L770.4000000000001 0L312.9000000000001 0L792.9000000000001 480z" fill="url(#SvgjsLinearGradient2991)"></path><path d="M960.5999999999999 480L480.5999999999999 0L215.0999999999999 0L695.0999999999999 480z" fill="url(#SvgjsLinearGradient2991)"></path><path d="M1440.382708907876 480L1920 0.38270890787595135L1920 480z" fill="url(#SvgjsLinearGradient2990)"></path><path d="M0 480L479.61729109212405 480L 0 0.38270890787595135z" fill="url(#SvgjsLinearGradient2991)"></path></g><defs><mask id="SvgjsMask2988"><rect width="1920" height="480" fill="#ffffff"></rect></mask><linearGradient x1="50%" y1="100%" x2="50%" y2="0%" gradientUnits="userSpaceOnUse" id="SvgjsLinearGradient2989"><stop stop-color="rgba(24, 63, 101, 1)" offset="0"></stop><stop stop-color="rgba(0, 0, 0, 1)" offset="1"></stop></linearGradient><linearGradient x1="0%" y1="100%" x2="100%" y2="0%" id="SvgjsLinearGradient2990"><stop stop-color="rgba(87, 99, 124, 0.2)" offset="0"></stop><stop stop-opacity="0" stop-color="rgba(87, 99, 124, 0.2)" offset="0.66"></stop></linearGradient><linearGradient x1="100%" y1="100%" x2="0%" y2="0%" id="SvgjsLinearGradient2991"><stop stop-color="rgba(87, 99, 124, 0.2)" offset="0"></stop><stop stop-opacity="0" stop-color="rgba(87, 99, 124, 0.2)" offset="0.66"></stop></linearGradient></defs></svg>